# Daredevil.2003.Directors.Cut.1080p.BluRay.REMUX.AVC.DTS-HD.MA.5.1-FraMeSToR

```text
General
Unique ID                      : 198305781294065873910328495028471629854 (0x950E34C379D55A1A32E3A7DF68C1DF1E)
Complete name                  : Daredevil.2003.Directors.Cut.1080p.BluRay.REMUX.AVC.DTS-HD.MA.5.1-FraMeSToR.mkv
Format                         : Matroska
Format version                 : Version 1
File size                      : 24.8 GiB
Duration                       : 2h 13mn
Overall bit rate               : 26.6 Mbps
Encoded date                   : UTC 2008-09-30 08:30:15
Writing application            : mkvmerge v2.3.0 ('Freestyler') built on Sep  8 2008 20:01:30
Writing library                : libebml v0.7.7 + libmatroska v0.8.1

Video
ID                             : 1
Format                         : AVC
Format/Info                    : Advanced Video Codec
Format profile                 : High@L4.1
Format settings, CABAC         : Yes
Format settings, ReFrames      : 4 frames
Codec ID                       : V_MPEG4/ISO/AVC
Duration                       : 2h 13mn
Bit rate                       : 19.9 Mbps
Width                          : 1 920 pixels
Height                         : 1 080 pixels
Display aspect ratio           : 16:9
Original aspect ratio          : 2.35:1
Frame rate mode                : Constant
Frame rate                     : 23.976 fps
Color space                    : YUV
Chroma subsampling             : 4:2:0
Bit depth                      : 8 bits
Scan type                      : Progressive
Bits/(Pixel*Frame)             : 0.400
Stream size                    : 18.6 GiB (75%)
Language                       : English
Default                        : Yes
Forced                         : No

Audio #1
ID                             : 2
Format                         : DTS
Format/Info                    : Digital Theater Systems
Format profile                 : MA / Core
Codec ID                       : A_DTS
Duration                       : 2h 13mn
Bit rate mode                  : Variable / Constant
Bit rate                       : 3 977 Kbps / 1 509 Kbps
Channel(s)                     : 6 channels
Channel positions              : Front: L C R, Side: L R, LFE
Sampling rate                  : 48.0 KHz
Bit depth                      : 24 bits
Compression mode               : Lossless / Lossy
Stream size                    : 3.71 GiB (15%)
Language                       : English
Default                        : Yes
Forced                         : No

Audio #2
ID                             : 3
Format                         : AC-3
Format/Info                    : Audio Coding 3
Mode extension                 : CM (complete main)
Codec ID                       : A_AC3
Duration                       : 2h 13mn
Bit rate mode                  : Constant
Bit rate                       : 448 Kbps
Channel(s)                     : 6 channels
Channel positions              : Front: L C R, Side: L R, LFE
Sampling rate                  : 48.0 KHz
Bit depth                      : 16 bits
Stream size                    : 427 MiB (2%)
Language                       : French
Default                        : No
Forced                         : No

Audio #3
ID                             : 4
Format                         : AC-3
Format/Info                    : Audio Coding 3
Mode extension                 : CM (complete main)
Codec ID                       : A_AC3
Duration                       : 2h 13mn
Bit rate mode                  : Constant
Bit rate                       : 448 Kbps
Channel(s)                     : 6 channels
Channel positions              : Front: L C R, Side: L R, LFE
Sampling rate                  : 48.0 KHz
Bit depth                      : 16 bits
Stream size                    : 427 MiB (2%)
Language                       : Spanish
Default                        : No
Forced                         : No

Audio #4
ID                             : 5
Format                         : AC-3
Format/Info                    : Audio Coding 3
Mode extension                 : CM (complete main)
Codec ID                       : A_AC3
Duration                       : 2h 13mn
Bit rate mode                  : Constant
Bit rate                       : 224 Kbps
Channel(s)                     : 2 channels
Channel positions              : Front: L R
Sampling rate                  : 48.0 KHz
Bit depth                      : 16 bits
Stream size                    : 213 MiB (1%)
Title                          : Audio Commentary by Director Mark Steven Johnson and Producer Avi Arad
Language                       : English
Default                        : No
Forced                         : No

Text #1
ID                             : 6
Format                         : PGS
Codec ID                       : S_HDMV/PGS
Codec ID/Info                  : Picture based subtitle format used on BDs
Description                    : English SDH
Language                       : English
Default                        : Yes
Forced                         : No

Text #2
ID                             : 7
Format                         : PGS
Codec ID                       : S_HDMV/PGS
Codec ID/Info                  : Picture based subtitle format used on BDs
Description                    : Spanish
Language                       : Spanish
Default                        : No
Forced                         : No

Text #3
ID                             : 8
Format                         : PGS
Codec ID                       : S_HDMV/PGS
Codec ID/Info                  : Picture based subtitle format used on BDs
Description                    : Cantonese
Language                       : Chinese
Default                        : No
Forced                         : No

Text #4
ID                             : 9
Format                         : PGS
Codec ID                       : S_HDMV/PGS
Codec ID/Info                  : Picture based subtitle format used on BDs
Description                    : Mandarin (Traditional)
Language                       : Chinese
Default                        : No
Forced                         : No
```
